<mxfile host="app.diagrams.net" modified="2023-12-10T15:27:00.371Z" agent="Mozilla/5.0 (Macintosh; Intel Mac OS X 10_15_7) AppleWebKit/605.1.15 (KHTML, like Gecko) Version/17.0 Safari/605.1.15" etag="pv4eMbowNdWmyWGV9Mum" version="22.1.7" type="device">
  <diagram name="Page-1" id="pf1tawMYcWCk-H3S4JUF">
    <mxGraphModel dx="1026" dy="691" grid="0" gridSize="10" guides="1" tooltips="1" connect="1" arrows="1" fold="1" page="1" pageScale="1" pageWidth="850" pageHeight="1100" math="0" shadow="0">
      <root>
        <mxCell id="0" />
        <mxCell id="1" parent="0" />
        <mxCell id="7mXV5HR3r4F1ztO2C5De-2" value="Diagrama de Secuencia - Registro de Usuario" style="text;align=left;fontStyle=1;verticalAlign=middle;spacingLeft=3;spacingRight=3;strokeColor=none;rotatable=0;points=[[0,0.5],[1,0.5]];portConstraint=eastwest;html=1;fontSize=22;" vertex="1" parent="1">
          <mxGeometry x="66" y="73" width="290" height="26" as="geometry" />
        </mxCell>
        <mxCell id="7mXV5HR3r4F1ztO2C5De-10" value="Cliente" style="shape=umlLifeline;perimeter=lifelinePerimeter;whiteSpace=wrap;html=1;container=1;dropTarget=0;collapsible=0;recursiveResize=0;outlineConnect=0;portConstraint=eastwest;newEdgeStyle={&quot;curved&quot;:0,&quot;rounded&quot;:0};fillColor=#fff2cc;strokeColor=#d6b656;" vertex="1" parent="1">
          <mxGeometry x="70" y="170" width="100" height="631" as="geometry" />
        </mxCell>
        <mxCell id="7mXV5HR3r4F1ztO2C5De-31" value="" style="html=1;points=[[0,0,0,0,5],[0,1,0,0,-5],[1,0,0,0,5],[1,1,0,0,-5]];perimeter=orthogonalPerimeter;outlineConnect=0;targetShapes=umlLifeline;portConstraint=eastwest;newEdgeStyle={&quot;curved&quot;:0,&quot;rounded&quot;:0};" vertex="1" parent="7mXV5HR3r4F1ztO2C5De-10">
          <mxGeometry x="45" y="80" width="10" height="551" as="geometry" />
        </mxCell>
        <mxCell id="7mXV5HR3r4F1ztO2C5De-12" value="Controlador" style="shape=umlLifeline;perimeter=lifelinePerimeter;whiteSpace=wrap;html=1;container=1;dropTarget=0;collapsible=0;recursiveResize=0;outlineConnect=0;portConstraint=eastwest;newEdgeStyle={&quot;curved&quot;:0,&quot;rounded&quot;:0};fillColor=#fff2cc;strokeColor=#d6b656;" vertex="1" parent="1">
          <mxGeometry x="335" y="170" width="145" height="640" as="geometry" />
        </mxCell>
        <mxCell id="7mXV5HR3r4F1ztO2C5De-14" value="" style="html=1;points=[[0,0,0,0,5],[0,1,0,0,-5],[1,0,0,0,5],[1,1,0,0,-5]];perimeter=orthogonalPerimeter;outlineConnect=0;targetShapes=umlLifeline;portConstraint=eastwest;newEdgeStyle={&quot;curved&quot;:0,&quot;rounded&quot;:0};" vertex="1" parent="7mXV5HR3r4F1ztO2C5De-12">
          <mxGeometry x="67.5" y="90" width="10" height="550" as="geometry" />
        </mxCell>
        <mxCell id="7mXV5HR3r4F1ztO2C5De-13" value="Servicio" style="shape=umlLifeline;perimeter=lifelinePerimeter;whiteSpace=wrap;html=1;container=1;dropTarget=0;collapsible=0;recursiveResize=0;outlineConnect=0;portConstraint=eastwest;newEdgeStyle={&quot;curved&quot;:0,&quot;rounded&quot;:0};fillColor=#fff2cc;strokeColor=#d6b656;" vertex="1" parent="1">
          <mxGeometry x="639" y="170" width="100" height="635" as="geometry" />
        </mxCell>
        <mxCell id="7mXV5HR3r4F1ztO2C5De-16" value="" style="html=1;points=[[0,0,0,0,5],[0,1,0,0,-5],[1,0,0,0,5],[1,1,0,0,-5]];perimeter=orthogonalPerimeter;outlineConnect=0;targetShapes=umlLifeline;portConstraint=eastwest;newEdgeStyle={&quot;curved&quot;:0,&quot;rounded&quot;:0};" vertex="1" parent="7mXV5HR3r4F1ztO2C5De-13">
          <mxGeometry x="47" y="90" width="8" height="545" as="geometry" />
        </mxCell>
        <mxCell id="7mXV5HR3r4F1ztO2C5De-15" value="1. Envia solicitud de registro &lt;br&gt;con datos del usuario" style="html=1;verticalAlign=bottom;startArrow=oval;endArrow=block;startSize=8;curved=0;rounded=0;entryX=0;entryY=0;entryDx=0;entryDy=5;" edge="1" target="7mXV5HR3r4F1ztO2C5De-14" parent="1" source="7mXV5HR3r4F1ztO2C5De-10">
          <mxGeometry x="0.0037" relative="1" as="geometry">
            <mxPoint x="300" y="265" as="sourcePoint" />
            <mxPoint as="offset" />
          </mxGeometry>
        </mxCell>
        <mxCell id="7mXV5HR3r4F1ztO2C5De-17" value="" style="edgeStyle=orthogonalEdgeStyle;rounded=0;orthogonalLoop=1;jettySize=auto;html=1;curved=0;" edge="1" parent="1" source="7mXV5HR3r4F1ztO2C5De-14" target="7mXV5HR3r4F1ztO2C5De-16">
          <mxGeometry relative="1" as="geometry">
            <Array as="points">
              <mxPoint x="612" y="300" />
              <mxPoint x="612" y="300" />
            </Array>
          </mxGeometry>
        </mxCell>
        <mxCell id="7mXV5HR3r4F1ztO2C5De-18" value="2. Procesa la solicitud de Registro.&amp;nbsp;" style="edgeLabel;html=1;align=center;verticalAlign=middle;resizable=0;points=[];" vertex="1" connectable="0" parent="7mXV5HR3r4F1ztO2C5De-17">
          <mxGeometry x="-0.492" y="-1" relative="1" as="geometry">
            <mxPoint x="60" y="-23" as="offset" />
          </mxGeometry>
        </mxCell>
        <mxCell id="7mXV5HR3r4F1ztO2C5De-20" value="3. Crea el usuario en la BD y genera el token" style="html=1;verticalAlign=bottom;endArrow=open;dashed=1;endSize=8;curved=0;rounded=0;" edge="1" parent="1" target="7mXV5HR3r4F1ztO2C5De-14">
          <mxGeometry x="0.0055" y="-10" relative="1" as="geometry">
            <mxPoint x="687" y="371" as="sourcePoint" />
            <mxPoint x="416" y="371" as="targetPoint" />
            <mxPoint as="offset" />
          </mxGeometry>
        </mxCell>
        <mxCell id="7mXV5HR3r4F1ztO2C5De-21" value="4. Retorna el usuario y el Token" style="html=1;verticalAlign=bottom;endArrow=open;dashed=1;endSize=8;curved=0;rounded=0;" edge="1" parent="1">
          <mxGeometry y="12" relative="1" as="geometry">
            <mxPoint x="414" y="442" as="sourcePoint" />
            <mxPoint x="686" y="442" as="targetPoint" />
            <mxPoint as="offset" />
          </mxGeometry>
        </mxCell>
        <mxCell id="7mXV5HR3r4F1ztO2C5De-23" value="5. Recibe usuario y token" style="html=1;verticalAlign=bottom;endArrow=open;dashed=1;endSize=8;curved=0;rounded=0;" edge="1" parent="1">
          <mxGeometry x="0.0141" y="-14" relative="1" as="geometry">
            <mxPoint x="402" y="492" as="sourcePoint" />
            <mxPoint x="130" y="492" as="targetPoint" />
            <mxPoint as="offset" />
          </mxGeometry>
        </mxCell>
        <mxCell id="7mXV5HR3r4F1ztO2C5De-24" value="" style="edgeStyle=orthogonalEdgeStyle;rounded=0;orthogonalLoop=1;jettySize=auto;html=1;curved=0;" edge="1" parent="1">
          <mxGeometry relative="1" as="geometry">
            <mxPoint x="130" y="582" as="sourcePoint" />
            <mxPoint x="402" y="584" as="targetPoint" />
            <Array as="points">
              <mxPoint x="320" y="584" />
              <mxPoint x="320" y="584" />
            </Array>
          </mxGeometry>
        </mxCell>
        <mxCell id="7mXV5HR3r4F1ztO2C5De-25" value="6. Realiza login con solicitud con Token" style="edgeLabel;html=1;align=center;verticalAlign=middle;resizable=0;points=[];" vertex="1" connectable="0" parent="7mXV5HR3r4F1ztO2C5De-24">
          <mxGeometry x="-0.492" y="-1" relative="1" as="geometry">
            <mxPoint x="60" y="-23" as="offset" />
          </mxGeometry>
        </mxCell>
        <mxCell id="7mXV5HR3r4F1ztO2C5De-27" value="" style="edgeStyle=orthogonalEdgeStyle;rounded=0;orthogonalLoop=1;jettySize=auto;html=1;curved=0;" edge="1" parent="1">
          <mxGeometry relative="1" as="geometry">
            <mxPoint x="413" y="614" as="sourcePoint" />
            <mxPoint x="686" y="614" as="targetPoint" />
            <Array as="points">
              <mxPoint x="612" y="614" />
              <mxPoint x="612" y="614" />
            </Array>
          </mxGeometry>
        </mxCell>
        <mxCell id="7mXV5HR3r4F1ztO2C5De-28" value="7. Verifica Token y obtiene &lt;br&gt;información del usuario" style="edgeLabel;html=1;align=center;verticalAlign=middle;resizable=0;points=[];" vertex="1" connectable="0" parent="7mXV5HR3r4F1ztO2C5De-27">
          <mxGeometry x="-0.492" y="-1" relative="1" as="geometry">
            <mxPoint x="60" y="-29" as="offset" />
          </mxGeometry>
        </mxCell>
        <mxCell id="7mXV5HR3r4F1ztO2C5De-29" value="8. Actualiza Token" style="html=1;verticalAlign=bottom;endArrow=open;dashed=1;endSize=8;curved=0;rounded=0;" edge="1" parent="1">
          <mxGeometry x="0.0073" y="-10" relative="1" as="geometry">
            <mxPoint x="685" y="691" as="sourcePoint" />
            <mxPoint x="411" y="691" as="targetPoint" />
            <mxPoint as="offset" />
          </mxGeometry>
        </mxCell>
        <mxCell id="7mXV5HR3r4F1ztO2C5De-30" value="5. Retorna Información &amp;nbsp;del usuario" style="html=1;verticalAlign=bottom;endArrow=open;dashed=1;endSize=8;curved=0;rounded=0;" edge="1" parent="1">
          <mxGeometry x="0.0141" y="-14" relative="1" as="geometry">
            <mxPoint x="403" y="751" as="sourcePoint" />
            <mxPoint x="132" y="749" as="targetPoint" />
            <mxPoint as="offset" />
          </mxGeometry>
        </mxCell>
      </root>
    </mxGraphModel>
  </diagram>
</mxfile>
